Coordinates
version=1
nRows=16
nColumns=22
inDegrees=yes

Units are S.I. units (second, meters, Newtons, ...)
If the header above contains a line with 'inDegrees', this indicates whether rotational values are in degrees (yes) or radians (no).

endheader
time	pelvis_tilt	pelvis_list	pelvis_rotation	pelvis_tx	pelvis_ty	pelvis_tz	hip_flexion_r	hip_adduction_r	hip_rotation_r	knee_angle_r	ankle_angle_r	subtalar_angle_r	hip_flexion_l	hip_adduction_l	hip_rotation_l	knee_angle_l	ankle_angle_l	subtalar_angle_l	lumbar_extension	lumbar_bending	lumbar_rotation
      3.64000000	     -5.02459256	      0.22608082	      3.37413552	     -0.85192085	      0.91586512	      0.10663492	     -6.19775153	     -2.18409933	     -8.94061124	    -22.37142006	     13.78919876	     12.61619520	     29.07023392	      0.35266302	     -0.82244705	    -28.64708246	      6.12412427	     -9.02807402	     -7.47799693	     -4.47127746	      4.01786614
      3.65000000	     -5.20378634	     -0.15831251	      2.92091957	     -0.86164209	      0.91482066	      0.11024970	     -5.98205610	     -1.57204299	     -8.81636692	    -21.23109155	     15.01669094	     12.16117316	     29.91030290	     -0.35578600	     -0.88888477	    -28.62045278	      5.68048931	     -9.32998341	     -7.82225787	     -4.00380699	      4.27255453
      3.66000000	     -5.30574234	     -0.54249224	      2.50108649	     -0.87144103	      0.91399829	      0.11374847	     -5.73294639	     -0.95409678	     -8.81145829	    -20.28012309	     16.11155416	     11.53011309	     30.59120443	     -1.05660630	     -0.92562705	    -28.46662990	      5.24401504	     -9.69662300	     -8.31184924	     -3.51738897	      4.45666669
      3.67000000	     -5.33753782	     -0.91969187	      2.10399092	     -0.88125904	      0.91338754	      0.11715919	     -5.46580727	     -0.33745206	     -8.91005123	    -19.48640826	     17.07687582	     10.80157939	     31.11773220	     -1.75017020	     -0.95839680	    -28.19084886	      4.85386026	    -10.08384627	     -8.92333874	     -3.03162589	      4.60602959
      3.68000000	     -5.32012264	     -1.27242944	      1.72145322	     -0.89107247	      0.91294671	      0.12048336	     -5.16052877	      0.25291532	     -9.08908102	    -18.85447927	     17.93731726	      9.99208848	     31.50955537	     -2.41918752	     -0.99581735	    -27.79368236	      4.52082595	    -10.47450030	     -9.61964102	     -2.56759090	      4.72866877
      3.69000000	     -5.27549005	     -1.59527664	      1.36052119	     -0.90077763	      0.91261936	      0.12375621	     -4.84922868	      0.82127692	     -9.29773980	    -18.29744383	     18.71200814	      9.19740973	     31.80095539	     -3.06305020	     -1.06464191	    -27.30458081	      4.30999062	    -10.80230656	    -10.35008318	     -2.14682129	      4.82665102
      3.70000000	     -5.21690389	     -1.85722815	      1.01225429	     -0.91038257	      0.91238930	      0.12694943	     -4.50389977	      1.32161540	     -9.51937926	    -17.84639863	     19.41873780	      8.39021746	     32.00308185	     -3.64602290	     -1.16630179	    -26.71973725	      4.20310699	    -11.04831001	    -11.09444277	     -1.79814829	      4.88078471
      3.71000000	     -5.15332252	     -2.06523094	      0.68107933	     -0.91979147	      0.91222591	      0.13008786	     -4.16650819	      1.76806952	     -9.71995500	    -17.41627313	     20.06217613	      7.64762621	     32.13796590	     -4.17679094	     -1.30371144	    -26.07107591	      4.26256919	    -11.14004747	    -11.81758099	     -1.52241525	      4.91596166
      3.72000000	     -5.09238174	     -2.20893757	      0.36521859	     -0.92901018	      0.91212432	      0.13314678	     -3.82333998	      2.14323005	     -9.87398862	    -17.02092600	     20.65019919	      6.91705655	     32.22206919	     -4.63987358	     -1.47117103	    -25.37552834	      4.42128448	    -11.06008539	    -12.50844798	     -1.32425762	      4.89277117
      3.73000000	     -5.03828239	     -2.30465237	      0.06752003	     -0.93799138	      0.91208170	      0.13613422	     -3.49251330	      2.46717119	     -9.96756603	    -16.62355469	     21.17319689	      6.22978461	     32.27227710	     -5.04944350	     -1.65881370	    -24.66374047	      4.67029423	    -10.78602590	    -13.14875474	     -1.18673401	      4.82343711
      3.74000000	     -4.99230057	     -2.36746709	     -0.21268475	     -0.94670479	      0.91210584	      0.13903797	     -3.17411170	      2.75303604	     -9.99963761	    -16.22552192	     21.61424041	      5.58939242	     32.30462640	     -5.41954799	     -1.87010995	    -23.97641555	      4.98253510	    -10.33735061	    -13.73051268	     -1.08790975	      4.69982500
      3.75000000	     -4.96164225	     -2.42944234	     -0.47017339	     -0.95514620	      0.91220854	      0.14185689	     -2.85337135	      3.03429711	     -9.97862947	    -15.84068308	     21.96496810	      4.99661702	     32.34192201	     -5.77360947	     -2.06450539	    -23.34886611	      5.27888859	     -9.74862797	    -14.24319801	     -0.99267288	      4.54132693
      3.76000000	     -4.95320252	     -2.50765275	     -0.70479578	     -0.96328137	      0.91240199	      0.14455105	     -2.51485782	      3.32188305	     -9.92953246	    -15.48348059	     22.20343035	      4.46843380	     32.40715407	     -6.12659676	     -2.25164843	    -22.83246125	      5.52314752	     -9.05858170	    -14.67303130	     -0.87062719	      4.34870384
      3.77000000	     -4.95194053	     -2.62927719	     -0.91799637	     -0.97110675	      0.91272811	      0.14712269	     -2.15118171	      3.63848545	     -9.85984282	    -15.19854716	     22.30641560	      4.06425464	     32.51415395	     -6.51288590	     -2.46569900	    -22.50093057	      5.73520087	     -8.36559869	    -15.04206323	     -0.68961466	      4.12555515
      3.78000000	     -4.96553207	     -2.80708461	     -1.11554278	     -0.97862326	      0.91321075	      0.14954554	     -1.75006680	      3.99630002	     -9.74075987	    -14.98755887	     22.25025227	      3.82312847	     32.67512067	     -6.93672230	     -2.66609491	    -22.38516931	      5.92460782	     -7.74009972	    -15.34203558	     -0.43246429	      3.89512807
      3.79000000	     -4.98879505	     -3.01985059	     -1.27423086	     -0.98577418	      0.91384746	      0.15176891	     -1.31868674	      4.36192898	     -9.67880117	    -14.85609353	     22.12389169	      3.73306112	     32.90159317	     -7.37469592	     -2.90511474	    -22.53143952	      6.04510132	     -7.10632957	    -15.57210757	     -0.11800319	      3.64472686
